<?xml version="1.0" standalone="no"?><!DOCTYPE svg PUBLIC "-//W3C//DTD SVG 1.1//EN" "http://www.w3.org/Graphics/SVG/1.1/DTD/svg11.dtd"><svg class="icon" height="512" viewBox="0 0 1024 1024" version="1.1" xmlns="http://www.w3.org/2000/svg"><path d="M247.698 373.035v38.57l259.582-228.53h-44.413l-215.17 189.96zM247.698 290.342v35.507l172.033-152.256h-29.203l-142.83 116.749zM875.987 706.766c24.357-115.842-49.779-229.438-165.61-253.79-115.843-24.357-229.438 49.763-253.795 165.604-24.358 115.838 49.771 229.438 165.609 253.79 47.835 10.059 95.179 3.102 136.18-16.453l56.325 86.411c4.024 6.073 10.009 10.015 16.619 11.406 6.606 1.388 13.74 0.277 19.812-3.748 12.265-7.952 15.699-24.284 7.746-36.485l-56.016-85.833c36.104-29.796 62.751-71.539 73.131-120.902v0zM632.392 824.205c-89.208-18.758-146.32-106.276-127.579-195.41 18.76-89.207 106.282-146.314 195.489-127.554 89.204 18.755 146.306 106.272 127.551 195.48-18.759 89.208-106.256 146.241-195.461 127.484v0zM576.476 564.947c-16.818 19.908-29.373 42.673-37.185 67.76-1.851 5.997 1.458 12.356 7.459 14.206 0.337 0.141 0.678 0.217 1.031 0.287 5.633 1.185 11.406-2.11 13.153-7.694 6.928-22.208 17.977-42.316 32.853-59.887 4.078-4.88 3.461-11.978-1.347-16.034-4.728-4.052-11.902-3.448-15.964 1.362v0zM666.578 915.095c-82.017 0-154.895-39.084-201.060-99.632l-235.92 0v-659.856h462.032v255.331c18.589 1.83 36.581 5.682 53.765 11.318l-0.042-234.786c-0.001-70.375-57.076-127.507-127.567-127.507h-314.575c-70.49 0-127.565 57.132-127.565 127.507v639.327c0 70.375 57.133 127.508 127.565 127.508h314.806c38.258 0 72.61-16.916 95.984-43.672-15.363 2.917-31.211 4.461-47.422 4.461zM465.412 929.669c-23.128 0-41.749-18.909-41.749-41.98 0-23.074 18.679-41.751 41.749-41.751 23.249 0 41.926 18.678 41.926 41.751 0 23.188-18.678 41.98-41.926 41.98z" /></svg>